<svg width="148" height="56" viewBox="0 0 148 56" fill="none" xmlns="http://www.w3.org/2000/svg">
<path d="M114.5 10.5H124.5L129 21.5H130L135 10.5H145.5L124 56H114L124.5 33.5L114.5 10.5Z" fill="white"/>
<path d="M0 48V0H9L31.5 29.5H32.5V0H43V48H33L11.5 19H10.5V48H0Z" fill="white"/>
<path d="M50.5 48H61V16.5H50.5V48Z" fill="white"/>
<path d="M88 0H81C73 0 71 6 71 10V16.5H65V25H71V48H80.5V25H94.5V38.5C94.5 44 98.9 48 104.5 48H112L116.5 39H108.5C106.5 39 105 37.5 105 35.5V25H115.5L111.5 16.5H105V4H94.5V16.5H81V12C81 10 82.5 9 84 9H88V0Z" fill="white"/>
<circle cx="55.5" cy="5.5" r="5.5" fill="white"/>
<circle cx="142.5" cy="44.5" r="5.5" fill="white"/>
</svg>
