<svg width="48" height="48" viewBox="0 0 48 48" fill="none" xmlns="http://www.w3.org/2000/svg">
<path d="M7.2002 12C7.2002 10.6725 8.2727 9.60001 9.6002 9.60001H38.4002C39.7277 9.60001 40.8002 10.6725 40.8002 12C40.8002 13.3275 39.7277 14.4 38.4002 14.4H9.6002C8.2727 14.4 7.2002 13.3275 7.2002 12ZM7.2002 24C7.2002 22.6725 8.2727 21.6 9.6002 21.6H38.4002C39.7277 21.6 40.8002 22.6725 40.8002 24C40.8002 25.3275 39.7277 26.4 38.4002 26.4H9.6002C8.2727 26.4 7.2002 25.3275 7.2002 24ZM40.8002 36C40.8002 37.3275 39.7277 38.4 38.4002 38.4H9.6002C8.2727 38.4 7.2002 37.3275 7.2002 36C7.2002 34.6725 8.2727 33.6 9.6002 33.6H38.4002C39.7277 33.6 40.8002 34.6725 40.8002 36Z" fill="#381B58"/>
</svg>
