<svg width="48" height="48" viewBox="0 0 48 48" fill="none" xmlns="http://www.w3.org/2000/svg">
<path d="M21.6 7.2V4.8C21.6 3.4725 22.6725 2.4 24 2.4C25.3275 2.4 26.4 3.4725 26.4 4.8V7.2H31.2C35.175 7.2 38.4 10.425 38.4 14.4C38.4 18.375 35.175 21.6 31.2 21.6H30V16.8H31.2C32.5275 16.8 33.6 15.7275 33.6 14.4C33.6 13.0725 32.5275 12 31.2 12H26.4V26.4H28.8C32.775 26.4 36 29.625 36 33.6C36 37.17 33.405 40.1325 30 40.7025V35.6775C30.72 35.265 31.2 34.485 31.2 33.6C31.2 32.2725 30.1275 31.2 28.8 31.2H26.4V43.2C26.4 44.5275 25.3275 45.6 24 45.6C22.6725 45.6 21.6 44.5275 21.6 43.2V40.8H19.2C17.8725 40.8 16.8 39.7275 16.8 38.4C16.8 37.0725 17.8725 36 19.2 36H21.6V31.2H19.2C15.225 31.2 12 27.975 12 24C12 20.43 14.595 17.4675 18 16.8975V21.9225C17.28 22.335 16.8 23.115 16.8 24C16.8 25.3275 17.8725 26.4 19.2 26.4H21.6V12H16.155C15.3225 13.4325 13.7775 14.4 12 14.4H10.8C8.81251 14.4 7.20001 12.7875 7.20001 10.8C7.20001 8.8125 8.81251 7.2 10.8 7.2H21.6Z" fill="#381B58"/>
</svg>
