<svg aria-hidden="true" style="position: absolute; width: 0; height: 0; overflow: hidden;" version="1.1" xmlns="http://www.w3.org/2000/svg" xmlns:xlink="http://www.w3.org/1999/xlink">
<defs>
<symbol id="icon-chevron-down" viewBox="0 0 32 32">
<path d="M14.87 21.93c0.625 0.625 1.64 0.625 2.265 0l8-8c0.625-0.625 0.625-1.64 0-2.265s-1.64-0.625-2.265 0l-6.87 6.87-6.87-6.865c-0.625-0.625-1.64-0.625-2.265 0s-0.625 1.64 0 2.265l8 8 0.005-0.005z"></path>
</symbol>
<symbol id="icon-chevron-up" viewBox="0 0 32 32">
<path d="M14.87 10.070c0.625-0.625 1.64-0.625 2.265 0l8 8c0.625 0.625 0.625 1.64 0 2.265s-1.64 0.625-2.265 0l-6.87-6.87-6.87 6.865c-0.625 0.625-1.64 0.625-2.265 0s-0.625-1.64 0-2.265l8-8 0.005 0.005z"></path>
</symbol>
<symbol id="icon-arrow-down-solid-full-2" viewBox="0 0 32 32">
<path d="M14.87 28.33c0.625 0.625 1.64 0.625 2.265 0l8-8c0.625-0.625 0.625-1.64 0-2.265s-1.64-0.625-2.265 0l-5.27 5.27v-18.535c0-0.885-0.715-1.6-1.6-1.6s-1.6 0.715-1.6 1.6v18.535l-5.27-5.27c-0.625-0.625-1.64-0.625-2.265 0s-0.625 1.64 0 2.265l8.005 8z"></path>
</symbol>
<symbol id="icon-arrow-left-solid-full-1" viewBox="0 0 32 32">
<path fill="currentColor" style="fill: var(--color1, currentColor)" d="M3.67 14.87c-0.625 0.625-0.625 1.64 0 2.265l8 8c0.625 0.625 1.64 0.625 2.265 0s0.625-1.64 0-2.265l-5.27-5.27h18.535c0.885 0 1.6-0.715 1.6-1.6s-0.715-1.6-1.6-1.6h-18.535l5.27-5.27c0.625-0.625 0.625-1.64 0-2.265s-1.64-0.625-2.265 0l-8 8.005z"></path>
</symbol>
<symbol id="icon-arrow-right-from-bracket-solid-full-1" viewBox="0 0 32 32">
<path fill="currentColor" style="fill: var(--color1, currentColor)" d="M11.2 8c0.885 0 1.6-0.715 1.6-1.6s-0.715-1.6-1.6-1.6h-3.2c-2.65 0-4.8 2.15-4.8 4.8v12.8c0 2.65 2.15 4.8 4.8 4.8h3.2c0.885 0 1.6-0.715 1.6-1.6s-0.715-1.6-1.6-1.6h-3.2c-0.885 0-1.6-0.715-1.6-1.6v-12.8c0-0.885 0.715-1.6 1.6-1.6h3.2zM28.33 17.13c0.625-0.625 0.625-1.64 0-2.265l-6.4-6.4c-0.625-0.625-1.64-0.625-2.265 0s-0.625 1.64 0 2.265l3.67 3.67h-10.535c-0.885 0-1.6 0.715-1.6 1.6s0.715 1.6 1.6 1.6h10.535l-3.67 3.67c-0.625 0.625-0.625 1.64 0 2.265s1.64 0.625 2.265 0l6.4-6.405z"></path>
</symbol>
<symbol id="icon-arrow-right-solid-full-1" viewBox="0 0 32 32">
<path d="M28.33 17.13c0.625-0.625 0.625-1.64 0-2.265l-8-8c-0.625-0.625-1.64-0.625-2.265 0s-0.625 1.64 0 2.265l5.27 5.27h-18.535c-0.885 0-1.6 0.715-1.6 1.6s0.715 1.6 1.6 1.6h18.535l-5.27 5.27c-0.625 0.625-0.625 1.64 0 2.265s1.64 0.625 2.265 0l8-8.005z"></path>
</symbol>
<symbol id="icon-arrow-trend-down-solid-full-1" viewBox="0 0 32 32">
<path fill="currentColor" style="fill: var(--color1, currentColor)" d="M20.8 20.8c-0.885 0-1.6 0.715-1.6 1.6s0.715 1.6 1.6 1.6h8c0.885 0 1.6-0.715 1.6-1.6v-8c0-0.885-0.715-1.6-1.6-1.6s-1.6 0.715-1.6 1.6v4.135l-8.47-8.47c-0.625-0.625-1.64-0.625-2.265 0l-5.265 5.27-6.87-6.865c-0.625-0.625-1.64-0.625-2.265 0s-0.625 1.64 0 2.265l8 8c0.625 0.625 1.64 0.625 2.265 0l5.27-5.27 7.335 7.335h-4.135z"></path>
</symbol>
<symbol id="icon-arrow-trend-up-solid-full-1" viewBox="0 0 32 32">
<path fill="currentColor" style="fill: var(--color1, currentColor)" d="M20.8 11.2c-0.885 0-1.6-0.715-1.6-1.6s0.715-1.6 1.6-1.6h8c0.885 0 1.6 0.715 1.6 1.6v8c0 0.885-0.715 1.6-1.6 1.6s-1.6-0.715-1.6-1.6v-4.135l-8.47 8.47c-0.625 0.625-1.64 0.625-2.265 0l-5.265-5.27-6.87 6.865c-0.625 0.625-1.64 0.625-2.265 0s-0.625-1.64 0-2.265l8-8c0.625-0.625 1.64-0.625 2.265 0l5.27 5.27 7.335-7.335h-4.135z"></path>
</symbol>
<symbol id="icon-bars-solid-full-1" viewBox="0 0 32 32">
<path fill="currentColor" style="fill: var(--color1, currentColor)" d="M4.8 8c0-0.885 0.715-1.6 1.6-1.6h19.2c0.885 0 1.6 0.715 1.6 1.6s-0.715 1.6-1.6 1.6h-19.2c-0.885 0-1.6-0.715-1.6-1.6zM4.8 16c0-0.885 0.715-1.6 1.6-1.6h19.2c0.885 0 1.6 0.715 1.6 1.6s-0.715 1.6-1.6 1.6h-19.2c-0.885 0-1.6-0.715-1.6-1.6zM27.2 24c0 0.885-0.715 1.6-1.6 1.6h-19.2c-0.885 0-1.6-0.715-1.6-1.6s0.715-1.6 1.6-1.6h19.2c0.885 0 1.6 0.715 1.6 1.6z"></path>
</symbol>
<symbol id="icon-calendar-regular-full-1" viewBox="0 0 32 32">
<path fill="currentColor" style="fill: var(--color1, currentColor)" d="M10.8 3.2c0.665 0 1.2 0.535 1.2 1.2v2h8v-2c0-0.665 0.535-1.2 1.2-1.2s1.2 0.535 1.2 1.2v2h1.6c1.765 0 3.2 1.435 3.2 3.2v14.4c0 1.765-1.435 3.2-3.2 3.2h-16c-1.765 0-3.2-1.435-3.2-3.2v-14.4c0-1.765 1.435-3.2 3.2-3.2h1.6v-2c0-0.665 0.535-1.2 1.2-1.2zM10.8 8.8h-2.8c-0.44 0-0.8 0.36-0.8 0.8v2.4h17.6v-2.4c0-0.44-0.36-0.8-0.8-0.8h-13.2zM7.2 14.4v9.6c0 0.44 0.36 0.8 0.8 0.8h16c0.44 0 0.8-0.36 0.8-0.8v-9.6h-17.6z"></path>
</symbol>
<symbol id="icon-check-solid-full-1" viewBox="0 0 32 32">
<path fill="currentColor" style="fill: var(--color1, currentColor)" d="M26.54 6.705c0.715 0.52 0.875 1.52 0.355 2.235l-12.8 17.6c-0.275 0.38-0.7 0.615-1.17 0.655s-0.925-0.135-1.255-0.465l-6.4-6.4c-0.625-0.625-0.625-1.64 0-2.265s1.64-0.625 2.265 0l5.075 5.075 11.7-16.085c0.52-0.715 1.52-0.875 2.235-0.355l-0.005 0.005z"></path>
</symbol>
<symbol id="icon-circle-exclamation-solid-full-1" viewBox="0 0 32 32">
<path fill="currentColor" style="fill: var(--color1, currentColor)" d="M16 28.8c-7.070 0-12.8-5.73-12.8-12.8s5.73-12.8 12.8-12.8 12.8 5.73 12.8 12.8c0 7.070-5.73 12.8-12.8 12.8zM16 19.2c-0.885 0-1.6 0.715-1.6 1.6s0.715 1.6 1.6 1.6c0.885 0 1.6-0.715 1.6-1.6s-0.715-1.6-1.6-1.6zM16 9.6c-0.91 0-1.635 0.775-1.57 1.685l0.37 5.2c0.045 0.63 0.57 1.115 1.195 1.115 0.63 0 1.15-0.485 1.195-1.115l0.37-5.2c0.065-0.91-0.655-1.685-1.57-1.685h0.010z"></path>
</symbol>
<symbol id="icon-clock-regular-full-1" viewBox="0 0 32 32">
<path fill="currentColor" style="fill: var(--color1, currentColor)" d="M26.4 16c0 5.745-4.655 10.4-10.4 10.4s-10.4-4.655-10.4-10.4c0-5.745 4.655-10.4 10.4-10.4s10.4 4.655 10.4 10.4zM3.2 16c0 7.070 5.73 12.8 12.8 12.8s12.8-5.73 12.8-12.8c0-7.070-5.73-12.8-12.8-12.8s-12.8 5.73-12.8 12.8zM14.8 9.2v6.8c0 0.4 0.2 0.775 0.535 1l4.8 3.2c0.55 0.37 1.295 0.22 1.665-0.335s0.22-1.295-0.335-1.665l-4.265-2.84v-6.16c0-0.665-0.535-1.2-1.2-1.2s-1.2 0.535-1.2 1.2z"></path>
</symbol>
<symbol id="icon-download-solid-full-1" viewBox="0 0 32 32">
<path fill="currentColor" style="fill: var(--color1, currentColor)" d="M17.6 4.8c0-0.885-0.715-1.6-1.6-1.6s-1.6 0.715-1.6 1.6v10.535l-2.070-2.070c-0.625-0.625-1.64-0.625-2.265 0s-0.625 1.64 0 2.265l4.8 4.8c0.625 0.625 1.64 0.625 2.265 0l4.8-4.8c0.625-0.625 0.625-1.64 0-2.265s-1.64-0.625-2.265 0l-2.065 2.070v-10.535zM8 19.2c-1.765 0-3.2 1.435-3.2 3.2v1.6c0 1.765 1.435 3.2 3.2 3.2h16c1.765 0 3.2-1.435 3.2-3.2v-1.6c0-1.765-1.435-3.2-3.2-3.2h-2.345l-2.83 2.83c-1.56 1.56-4.095 1.56-5.655 0l-2.825-2.83h-2.345zM23.2 22c0.665 0 1.2 0.535 1.2 1.2s-0.535 1.2-1.2 1.2c-0.665 0-1.2-0.535-1.2-1.2s0.535-1.2 1.2-1.2z"></path>
</symbol>
<symbol id="icon-euro-sign-solid-full-2" viewBox="0 0 32 32">
<path d="M8.465 12.8c1.375-4.625 5.66-8 10.735-8h3.2c0.885 0 1.6 0.715 1.6 1.6s-0.715 1.6-1.6 1.6h-3.2c-3.28 0-6.1 1.975-7.335 4.8h6.535c0.665 0 1.2 0.535 1.2 1.2s-0.535 1.2-1.2 1.2h-7.16c-0.025 0.265-0.040 0.53-0.040 0.8s0.015 0.535 0.040 0.8h7.16c0.665 0 1.2 0.535 1.2 1.2s-0.535 1.2-1.2 1.2h-6.535c1.235 2.825 4.055 4.8 7.335 4.8h3.2c0.885 0 1.6 0.715 1.6 1.6s-0.715 1.6-1.6 1.6h-3.2c-5.075 0-9.36-3.375-10.735-8h-1.665c-0.665 0-1.2-0.535-1.2-1.2s0.535-1.2 1.2-1.2h1.23c-0.035-0.525-0.035-1.075 0-1.6h-1.23c-0.665 0-1.2-0.535-1.2-1.2s0.535-1.2 1.2-1.2h1.665z"></path>
</symbol>
<symbol id="icon-face-smile-regular-full-2" viewBox="0 0 32 32">
<path d="M26.4 16c0-5.745-4.655-10.4-10.4-10.4s-10.4 4.655-10.4 10.4c0 5.745 4.655 10.4 10.4 10.4s10.4-4.655 10.4-10.4zM3.2 16c0-7.070 5.73-12.8 12.8-12.8s12.8 5.73 12.8 12.8c0 7.070-5.73 12.8-12.8 12.8s-12.8-5.73-12.8-12.8zM12.065 19.17c0.75 0.78 2.055 1.63 3.935 1.63s3.185-0.85 3.935-1.63c0.46-0.48 1.22-0.495 1.695-0.035s0.495 1.22 0.035 1.695c-1.105 1.15-3 2.37-5.665 2.37s-4.56-1.22-5.665-2.37c-0.46-0.48-0.445-1.24 0.035-1.695s1.24-0.445 1.695 0.035zM10.4 13.6c0-0.885 0.715-1.6 1.6-1.6s1.6 0.715 1.6 1.6c0 0.885-0.715 1.6-1.6 1.6s-1.6-0.715-1.6-1.6zM20 12c0.885 0 1.6 0.715 1.6 1.6s-0.715 1.6-1.6 1.6c-0.885 0-1.6-0.715-1.6-1.6s0.715-1.6 1.6-1.6z"></path>
</symbol>
<symbol id="icon-filter-solid-full-1" viewBox="0 0 32 32">
<path fill="currentColor" style="fill: var(--color1, currentColor)" d="M4.8 6.4c-0.645 0-1.23 0.39-1.48 0.99s-0.11 1.285 0.35 1.74l9.13 9.135v5.735c0 0.425 0.17 0.83 0.47 1.13l3.2 3.2c0.46 0.46 1.145 0.595 1.745 0.345s0.985-0.83 0.985-1.475v-8.935l9.13-9.13c0.46-0.46 0.595-1.145 0.345-1.745s-0.83-0.99-1.475-0.99h-22.4z"></path>
</symbol>
<symbol id="icon-floppy-disk-regular-full-1" viewBox="0 0 32 32">
<path fill="currentColor" style="fill: var(--color1, currentColor)" d="M8 7.2c-0.44 0-0.8 0.36-0.8 0.8v16c0 0.44 0.36 0.8 0.8 0.8h16c0.44 0 0.8-0.36 0.8-0.8v-12.135c0-0.21-0.085-0.415-0.235-0.565l-3.765-3.77v4.47c0 0.885-0.715 1.6-1.6 1.6h-8c-0.885 0-1.6-0.715-1.6-1.6v-4.8h-1.6zM12 7.2v4h6.4v-4h-6.4zM4.8 8c0-1.765 1.435-3.2 3.2-3.2h12.135c0.85 0 1.665 0.335 2.265 0.935l3.865 3.865c0.6 0.6 0.935 1.415 0.935 2.265v12.135c0 1.765-1.435 3.2-3.2 3.2h-16c-1.765 0-3.2-1.435-3.2-3.2v-16z"></path>
</symbol>
<symbol id="icon-grid" viewBox="0 0 32 32">
<path fill="currentColor" style="fill: var(--color1, currentColor)" d="M10.3 3.333c1.75 0 3.167 1.417 3.167 3.167v3.8c0 1.75-1.417 3.167-3.167 3.167h-3.8c-1.75 0-3.167-1.417-3.167-3.167v-3.8c0-1.75 1.417-3.167 3.167-3.167h3.8zM25.5 13.467h-3.8c-1.75 0-3.167-1.417-3.167-3.167v-3.8c0-1.75 1.417-3.167 3.167-3.167h3.8c1.75 0 3.167 1.417 3.167 3.167v3.8c0 1.75-1.417 3.167-3.167 3.167zM25.5 18.533c1.75 0 3.167 1.417 3.167 3.167v3.8c0 1.75-1.417 3.167-3.167 3.167h-3.8c-1.75 0-3.167-1.417-3.167-3.167v-3.8c0-1.75 1.417-3.167 3.167-3.167h3.8zM10.3 28.667h-3.8c-1.75 0-3.167-1.417-3.167-3.167v-3.8c0-1.75 1.417-3.167 3.167-3.167h3.8c1.75 0 3.167 1.417 3.167 3.167v3.8c0 1.75-1.417 3.167-3.167 3.167z"></path>
</symbol>
<symbol id="icon-info-solid-full-1" viewBox="0 0 32 32">
<path fill="currentColor" style="fill: var(--color1, currentColor)" d="M13.6 5.6c0-1.325 1.075-2.4 2.4-2.4s2.4 1.075 2.4 2.4-1.075 2.4-2.4 2.4c-1.325 0-2.4-1.075-2.4-2.4zM11.2 12.8c0-0.885 0.715-1.6 1.6-1.6h3.2c0.885 0 1.6 0.715 1.6 1.6v12.8h1.6c0.885 0 1.6 0.715 1.6 1.6s-0.715 1.6-1.6 1.6h-6.4c-0.885 0-1.6-0.715-1.6-1.6s0.715-1.6 1.6-1.6h1.6v-11.2h-1.6c-0.885 0-1.6-0.715-1.6-1.6z"></path>
</symbol>
<symbol id="icon-lightbulb-solid-full-1" viewBox="0 0 32 32">
<path fill="currentColor" style="fill: var(--color1, currentColor)" d="M21.045 22.4c0.365-1.115 1.095-2.125 1.92-2.995 1.635-1.72 2.635-4.045 2.635-6.605 0-5.3-4.3-9.6-9.6-9.6s-9.6 4.3-9.6 9.6c0 2.56 1 4.885 2.635 6.605 0.825 0.87 1.56 1.88 1.92 2.995h10.090zM20.8 24.8h-9.6v0.8c0 2.21 1.79 4 4 4h1.6c2.21 0 4-1.79 4-4v-0.8zM15.6 8.8c-1.99 0-3.6 1.61-3.6 3.6 0 0.665-0.535 1.2-1.2 1.2s-1.2-0.535-1.2-1.2c0-3.315 2.685-6 6-6 0.665 0 1.2 0.535 1.2 1.2s-0.535 1.2-1.2 1.2z"></path>
</symbol>
<symbol id="icon-list-solid-full-1" viewBox="0 0 32 32">
<path fill="currentColor" style="fill: var(--color1, currentColor)" d="M5.2 5.6c-0.665 0-1.2 0.535-1.2 1.2v2.4c0 0.665 0.535 1.2 1.2 1.2h2.4c0.665 0 1.2-0.535 1.2-1.2v-2.4c0-0.665-0.535-1.2-1.2-1.2h-2.4zM12.8 6.4c-0.885 0-1.6 0.715-1.6 1.6s0.715 1.6 1.6 1.6h14.4c0.885 0 1.6-0.715 1.6-1.6s-0.715-1.6-1.6-1.6h-14.4zM12.8 14.4c-0.885 0-1.6 0.715-1.6 1.6s0.715 1.6 1.6 1.6h14.4c0.885 0 1.6-0.715 1.6-1.6s-0.715-1.6-1.6-1.6h-14.4zM12.8 22.4c-0.885 0-1.6 0.715-1.6 1.6s0.715 1.6 1.6 1.6h14.4c0.885 0 1.6-0.715 1.6-1.6s-0.715-1.6-1.6-1.6h-14.4zM4 14.8v2.4c0 0.665 0.535 1.2 1.2 1.2h2.4c0.665 0 1.2-0.535 1.2-1.2v-2.4c0-0.665-0.535-1.2-1.2-1.2h-2.4c-0.665 0-1.2 0.535-1.2 1.2zM5.2 21.6c-0.665 0-1.2 0.535-1.2 1.2v2.4c0 0.665 0.535 1.2 1.2 1.2h2.4c0.665 0 1.2-0.535 1.2-1.2v-2.4c0-0.665-0.535-1.2-1.2-1.2h-2.4z"></path>
</symbol>
<symbol id="icon-magnifying-glass-solid-full-1" viewBox="0 0 32 32">
<path fill="currentColor" style="fill: var(--color1, currentColor)" d="M24 13.6c0 2.295-0.745 4.415-2 6.135l6.33 6.335c0.625 0.625 0.625 1.64 0 2.265s-1.64 0.625-2.265 0l-6.33-6.335c-1.72 1.255-3.84 2-6.135 2-5.745 0-10.4-4.655-10.4-10.4s4.655-10.4 10.4-10.4c5.745 0 10.4 4.655 10.4 10.4zM13.6 20.8c3.975 0 7.2-3.225 7.2-7.2s-3.225-7.2-7.2-7.2c-3.975 0-7.2 3.225-7.2 7.2s3.225 7.2 7.2 7.2z"></path>
</symbol>
<symbol id="icon-minus-solid-full-1" viewBox="0 0 32 32">
<path fill="currentColor" style="fill: var(--color1, currentColor)" d="M4.8 16c0-0.885 0.715-1.6 1.6-1.6h19.2c0.885 0 1.6 0.715 1.6 1.6s-0.715 1.6-1.6 1.6h-19.2c-0.885 0-1.6-0.715-1.6-1.6z"></path>
</symbol>
<symbol id="icon-plus-solid-full-1" viewBox="0 0 32 32">
<path fill="currentColor" style="fill: var(--color1, currentColor)" d="M17.6 6.4c0-0.885-0.715-1.6-1.6-1.6s-1.6 0.715-1.6 1.6v8h-8c-0.885 0-1.6 0.715-1.6 1.6s0.715 1.6 1.6 1.6h8v8c0 0.885 0.715 1.6 1.6 1.6s1.6-0.715 1.6-1.6v-8h8c0.885 0 1.6-0.715 1.6-1.6s-0.715-1.6-1.6-1.6h-8v-8z"></path>
</symbol>
<symbol id="icon-question-solid-full-1" viewBox="0 0 32 32">
<path fill="currentColor" style="fill: var(--color1, currentColor)" d="M11.2 11.2c0-2.65 2.15-4.8 4.8-4.8s4.8 2.15 4.8 4.8c0 2.135-1.395 3.945-3.325 4.57-1.42 0.46-3.075 1.765-3.075 3.83v1.2c0 0.885 0.715 1.6 1.6 1.6s1.6-0.715 1.6-1.6v-1.2c0-0.085 0.030-0.205 0.175-0.365 0.15-0.165 0.395-0.325 0.685-0.42 3.215-1.035 5.54-4.050 5.54-7.615 0-4.42-3.58-8-8-8s-8 3.58-8 8c0 0.885 0.715 1.6 1.6 1.6s1.6-0.715 1.6-1.6zM16 28.8c1.105 0 2-0.895 2-2s-0.895-2-2-2c-1.105 0-2 0.895-2 2s0.895 2 2 2z"></path>
</symbol>
<symbol id="icon-repeat-solid-full-1" viewBox="0 0 32 32">
<path fill="currentColor" style="fill: var(--color1, currentColor)" d="M26.73 9.13c0.625-0.625 0.625-1.64 0-2.265l-3.2-3.2c-0.46-0.46-1.145-0.595-1.745-0.345s-0.985 0.835-0.985 1.48v1.6h-8c-5.3 0-9.6 4.3-9.6 9.6 0 0.885 0.715 1.6 1.6 1.6s1.6-0.715 1.6-1.6c0-3.535 2.865-6.4 6.4-6.4h8v1.6c0 0.645 0.39 1.23 0.99 1.48s1.285 0.11 1.745-0.345l3.2-3.2-0.005-0.005zM5.27 22.87c-0.625 0.625-0.625 1.64 0 2.265l3.2 3.2c0.46 0.46 1.145 0.595 1.745 0.345s0.985-0.835 0.985-1.48v-1.6h8c5.3 0 9.6-4.3 9.6-9.6 0-0.885-0.715-1.6-1.6-1.6s-1.6 0.715-1.6 1.6c0 3.535-2.865 6.4-6.4 6.4h-8v-1.6c0-0.645-0.39-1.23-0.99-1.48s-1.285-0.11-1.745 0.345l-3.2 3.2 0.005 0.005z"></path>
</symbol>
<symbol id="icon-sort-solid-full-1" viewBox="0 0 32 32">
<path fill="currentColor" style="fill: var(--color1, currentColor)" d="M6.52 13.41c0.25 0.6 0.83 0.99 1.48 0.99h16c0.645 0 1.23-0.39 1.48-0.99s0.11-1.285-0.345-1.745l-8-8c-0.625-0.625-1.64-0.625-2.265 0l-8 8c-0.46 0.46-0.595 1.145-0.345 1.745h-0.005zM6.52 18.585c-0.25 0.6-0.11 1.285 0.345 1.745l8 8c0.625 0.625 1.64 0.625 2.265 0l8-8c0.46-0.46 0.595-1.145 0.345-1.745s-0.83-0.985-1.475-0.985h-16c-0.645 0-1.23 0.39-1.48 0.99v-0.005z"></path>
</symbol>
<symbol id="icon-staff-snake-solid-full-1" viewBox="0 0 32 32">
<path fill="currentColor" style="fill: var(--color1, currentColor)" d="M14.4 4.8v-1.6c0-0.885 0.715-1.6 1.6-1.6s1.6 0.715 1.6 1.6v1.6h3.2c2.65 0 4.8 2.15 4.8 4.8s-2.15 4.8-4.8 4.8h-0.8v-3.2h0.8c0.885 0 1.6-0.715 1.6-1.6s-0.715-1.6-1.6-1.6h-3.2v9.6h1.6c2.65 0 4.8 2.15 4.8 4.8 0 2.38-1.73 4.355-4 4.735v-3.35c0.48-0.275 0.8-0.795 0.8-1.385 0-0.885-0.715-1.6-1.6-1.6h-1.6v8c0 0.885-0.715 1.6-1.6 1.6s-1.6-0.715-1.6-1.6v-1.6h-1.6c-0.885 0-1.6-0.715-1.6-1.6s0.715-1.6 1.6-1.6h1.6v-3.2h-1.6c-2.65 0-4.8-2.15-4.8-4.8 0-2.38 1.73-4.355 4-4.735v3.35c-0.48 0.275-0.8 0.795-0.8 1.385 0 0.885 0.715 1.6 1.6 1.6h1.6v-9.6h-3.63c-0.555 0.955-1.585 1.6-2.77 1.6h-0.8c-1.325 0-2.4-1.075-2.4-2.4s1.075-2.4 2.4-2.4h7.2z"></path>
</symbol>
<symbol id="icon-triangle-exclamation-solid-full-1" viewBox="0 0 32 32">
<path fill="currentColor" style="fill: var(--color1, currentColor)" d="M16 3.2c0.735 0 1.41 0.405 1.76 1.050l10.8 20c0.335 0.62 0.32 1.37-0.040 1.975s-1.015 0.975-1.72 0.975h-21.6c-0.705 0-1.36-0.37-1.72-0.975s-0.375-1.355-0.040-1.975l10.8-20c0.35-0.645 1.025-1.050 1.76-1.050zM16 20.8c-0.885 0-1.6 0.715-1.6 1.6s0.715 1.6 1.6 1.6c0.885 0 1.6-0.715 1.6-1.6s-0.715-1.6-1.6-1.6zM16 11.2c-0.91 0-1.635 0.775-1.57 1.685l0.37 5.2c0.045 0.625 0.57 1.115 1.195 1.115 0.63 0 1.15-0.485 1.195-1.115l0.37-5.2c0.065-0.91-0.655-1.685-1.57-1.685h0.010z"></path>
</symbol>
<symbol id="icon-user-regular-full-1-1" viewBox="0 0 32 32">
<path fill="currentColor" style="fill: var(--color1, currentColor)" d="M12 9.6c0-2.21 1.79-4 4-4s4 1.79 4 4c0 2.21-1.79 4-4 4s-4-1.79-4-4zM22.4 9.6c0-3.535-2.865-6.4-6.4-6.4s-6.4 2.865-6.4 6.4 2.865 6.4 6.4 6.4c3.535 0 6.4-2.865 6.4-6.4zM7.2 27.2c0-3.535 2.865-6.4 6.4-6.4h4.8c3.535 0 6.4 2.865 6.4 6.4v0.4c0 0.665 0.535 1.2 1.2 1.2s1.2-0.535 1.2-1.2v-0.4c0-4.86-3.94-8.8-8.8-8.8h-4.8c-4.86 0-8.8 3.94-8.8 8.8v0.4c0 0.665 0.535 1.2 1.2 1.2s1.2-0.535 1.2-1.2v-0.4z"></path>
</symbol>
<symbol id="icon-xmark-solid-full-1" viewBox="0 0 32 32">
<path fill="currentColor" style="fill: var(--color1, currentColor)" d="M9.155 6.87c-0.625-0.625-1.64-0.625-2.265 0s-0.625 1.64 0 2.265l6.87 6.865-6.865 6.87c-0.625 0.625-0.625 1.64 0 2.265s1.64 0.625 2.265 0l6.865-6.87 6.87 6.865c0.625 0.625 1.64 0.625 2.265 0s0.625-1.64 0-2.265l-6.87-6.865 6.865-6.87c0.625-0.625 0.625-1.64 0-2.265s-1.64-0.625-2.265 0l-6.865 6.87-6.87-6.865z"></path>
</symbol>
</defs>
</svg>
